<?xml version="1.0" standalone="no"?><!DOCTYPE svg PUBLIC "-//W3C//DTD SVG 1.1//EN" "http://www.w3.org/Graphics/SVG/1.1/DTD/svg11.dtd"><svg t="1655443986974" class="icon" viewBox="0 0 1024 1024" version="1.1" xmlns="http://www.w3.org/2000/svg" p-id="4967" xmlns:xlink="http://www.w3.org/1999/xlink" width="128" height="128"><defs><style type="text/css">@font-face { font-family: feedback-iconfont; src: url("//at.alicdn.com/t/font_1031158_u69w8yhxdu.woff2?t=1630033759944") format("woff2"), url("//at.alicdn.com/t/font_1031158_u69w8yhxdu.woff?t=1630033759944") format("woff"), url("//at.alicdn.com/t/font_1031158_u69w8yhxdu.ttf?t=1630033759944") format("truetype"); }
</style></defs><path d="M853.333333 96c40.533333 0 74.666667 34.133333 74.666667 74.666667v682.666666c0 40.533333-34.133333 74.666667-74.666667 74.666667H170.666667c-40.533333 0-74.666667-34.133333-74.666667-74.666667V170.666667c0-40.533333 34.133333-74.666667 74.666667-74.666667h682.666666zM746.666667 469.333333c-10.666667-12.8-32-14.933333-44.8-2.133333L320 808.533333l-2.133333 2.133334c-19.2 19.2-4.266667 53.333333 23.466666 53.333333h492.8c17.066667-2.133333 29.866667-14.933333 29.866667-32v-196.266667c0-6.4-2.133333-10.666667-6.4-14.933333l-108.8-149.333333-2.133333-2.133334z m-394.666667-202.666666c-46.933333 0-85.333333 38.4-85.333333 85.333333s38.4 85.333333 85.333333 85.333333 85.333333-38.4 85.333333-85.333333-38.4-85.333333-85.333333-85.333333z" p-id="4968"></path></svg>